<svg width="1920" height="1080" viewBox="0 0 1920 1080" xmlns="http://www.w3.org/2000/svg"><rect width="1920" height="1080" fill="#0d1a2d"/><path d="M1920,1080C1601.1666666666667,1150.1666666666667,276.6666666666667,1090.3333333333333,0,1080C-276.6666666666667,1069.6666666666667,169.5,1051.5,260,1018C350.5,984.5,449.8333333333333,882,543,879C636.1666666666666,876,727.1666666666666,1010.1666666666666,819,1000C910.8333333333334,989.8333333333334,1003.3333333333334,821.3333333333334,1094,818C1184.6666666666667,814.6666666666666,1271.5,963.3333333333334,1363,980C1454.5,996.6666666666666,1551.3333333333333,971.5,1643,918C1734.6666666666667,864.5,1866.8333333333333,632,1913,659C1959.1666666666667,686,2238.8333333333335,1009.8333333333334,1920,1080C1601.1666666666667,1150.1666666666667,276.6666666666667,1090.3333333333333,0,1080" fill="#3439d5"/></svg>